<?xml version="1.0" encoding="utf-8"?>
<!-- Generator: Adobe Illustrator 15.1.0, SVG Export Plug-In . SVG Version: 6.00 Build 0)  -->
<!DOCTYPE svg PUBLIC "-//W3C//DTD SVG 1.1//EN" "http://www.w3.org/Graphics/SVG/1.1/DTD/svg11.dtd">
<svg version="1.1"
	 id="svg2" xmlns:cc="http://creativecommons.org/ns#" sodipodi:docname="AKULA_CLASS_CYRYLICA.svg" xmlns:sodipodi="http://sodipodi.sourceforge.net/DTD/sodipodi-0.dtd" xmlns:ns1="http://sozi.baierouge.fr" xmlns:rdf="http://www.w3.org/1999/02/22-rdf-syntax-ns#" inkscape:version="0.48.4 r9939" xmlns:inkscape="http://www.inkscape.org/namespaces/inkscape" xmlns:dc="http://purl.org/dc/elements/1.1/"
	 xmlns="http://www.w3.org/2000/svg" xmlns:xlink="http://www.w3.org/1999/xlink" x="0px" y="0px" width="213.166px"
	 height="65.5px" viewBox="0 0 213.166 65.5" enable-background="new 0 0 213.166 65.5" xml:space="preserve">
<sodipodi:namedview  id="base" pagecolor="#ffffff" bordercolor="#666666" inkscape:pageshadow="2" inkscape:window-y="0" borderopacity="1.0" inkscape:cy="386.27889" inkscape:cx="455.08991" inkscape:current-layer="layer1" inkscape:window-width="1524" inkscape:window-height="825" showgrid="false" inkscape:zoom="0.93600948" inkscape:window-x="0" inkscape:document-units="px" inkscape:pageopacity="0.0" inkscape:window-maximized="1">
	</sodipodi:namedview>
<g>
	
		<path id="path2992" inkscape:connector-curvature="0" sodipodi:nodetypes="cccccccc" fill="#333333" stroke="#000000" stroke-width="0.8293" d="
		M329.214,48.598h18.023v2.217l-1.479,1.396L345.8,65.5h-8.993c-2.435-4.443-4.378-11.554-8.577-12.919L329.214,48.598z"/>
	
		<path id="path2994" inkscape:connector-curvature="0" sodipodi:nodetypes="ccccccc" fill="#333333" stroke="#000000" stroke-width="1.0556" d="
		M329.136,24.196h16.148v15.749l4.093,5.44h-20.241v-7.521C332.534,34.279,336.488,28.475,329.136,24.196L329.136,24.196z"/>
	
		<path id="path2988" inkscape:connector-curvature="0" sodipodi:nodetypes="cccccccccccc" fill="#333333" stroke="#000000" stroke-width="1.4" d="
		M36.044,25.43l89.593,0.11l2.185,0.524l129.431,0.897c32.059,2.079,65.994,7.44,92.309,18.192l3.607-0.012v4.66l-5.666-0.023
		c-29.387,5.923-59.494,11.574-89.51,14.793H42.724C26.235,64.731,0.721,57.738,2.05,45.001C4.429,33.555,17.561,26.68,36.042,25.43
		H36.044z"/>
	
		<path id="path2996" inkscape:connector-curvature="0" sodipodi:nodetypes="cccccc" fill="#333333" stroke="#000000" stroke-width="0.7667" d="
		M328.747,17.191c8.813-0.655,23.059,2.095,26.562,4.574c0.466,0.31,0.529,0.392,0.035,0.637
		c-7.445,3.877-19.281,3.827-28.902,3.869c-2.305-0.456-4.257-1.61-4.388-4.334C322.409,18.286,325.499,17.622,328.747,17.191
		L328.747,17.191z"/>
	
		<path id="path4358" inkscape:connector-curvature="0" sodipodi:nodetypes="ccccc" fill="#333333" stroke="#000000" stroke-width="1.4" stroke-linecap="round" d="
		M348.103,46.766c0,0.663-8.407,1.201-14.698,1.201s-8.083-0.538-8.083-1.201c0-0.662,1.792-1.2,8.083-1.2
		C339.694,45.566,348.103,46.104,348.103,46.766z"/>
	
		<path id="path2990" inkscape:connector-curvature="0" sodipodi:nodetypes="cccccccc" fill="#333333" stroke="#000000" stroke-width="1.462" d="
		M135.186,12.678h27.945c8.245,0.623,16.115,2.259,24.093,3.948c8.643,2.359,16.486,5.393,22.248,9.993l-72.323,0.927
		c-3.98-0.195-8.867-0.283-11.939-2.025c1.772-1.482,3.971-4.408,4.516-7.331C130.594,15.426,132.619,13.384,135.186,12.678
		L135.186,12.678z"/>
	<g id="g4201" transform="translate(0 1.2421)">
		
			<rect id="rect4153" x="354.028" y="44.577" fill="#333333" stroke="#000000" stroke-width="2.3274" stroke-linecap="round" width="4.129" height="2.956"/>
		
			<path id="rect4155" inkscape:connector-curvature="0" sodipodi:nodetypes="cccccc" fill="#333333" stroke="#000000" stroke-width="2" stroke-linecap="round" d="
			M357.764,44.399h1.979c0.99,0.349,1.934,1.111,2.416,1.736c-0.452,0.855-1.365,1.412-2.393,1.738h-2.003V44.399z"/>
		
			<rect id="rect4151" x="353.161" y="44.306" fill="#333333" stroke="#000000" stroke-width="2" stroke-linecap="round" width="1.842" height="3.82"/>
		<g id="g4158" transform="translate(0 -970.88)">
			
				<path id="path4147" sodipodi:rx="9.6209087" sodipodi:type="arc" sodipodi:ry="25.539139" sodipodi:cy="-134.4675" sodipodi:cx="1837.5935" fill="#333333" stroke="#000000" stroke-width="1.7816" stroke-linecap="round" d="
				M358.428,1012.272c0,1.907-0.496,3.453-1.108,3.453c-0.611,0-1.108-1.546-1.108-3.453s0.497-3.452,1.108-3.452
				C357.932,1008.82,358.428,1010.365,358.428,1012.272z"/>
			
				<path id="path4149" sodipodi:rx="9.6209087" sodipodi:type="arc" sodipodi:ry="25.539139" sodipodi:cy="-134.4675" sodipodi:cx="1837.5935" fill="#333333" stroke="#000000" stroke-width="1.7816" stroke-linecap="round" d="
				M358.428,1021.881c0,1.906-0.496,3.453-1.108,3.453c-0.611,0-1.108-1.547-1.108-3.453c0-1.907,0.497-3.453,1.108-3.453
				C357.932,1018.427,358.428,1019.973,358.428,1021.881z"/>
			
				<path id="path4143" sodipodi:rx="9.6209087" sodipodi:type="arc" sodipodi:ry="25.539139" sodipodi:cy="-134.4675" sodipodi:cx="1837.5935" fill="#333333" stroke="#000000" stroke-width="2" stroke-linecap="round" d="
				M357.086,1013.493c0,1.568-0.479,2.839-1.069,2.839c-0.592,0-1.07-1.271-1.07-2.839c0-1.567,0.479-2.839,1.07-2.839
				C356.606,1010.654,357.086,1011.926,357.086,1013.493z"/>
			
				<path id="path4145" sodipodi:rx="9.6209087" sodipodi:type="arc" sodipodi:ry="25.539139" sodipodi:cy="-134.4675" sodipodi:cx="1837.5935" fill="#333333" stroke="#000000" stroke-width="2" stroke-linecap="round" d="
				M357.086,1020.143c0,1.568-0.479,2.839-1.069,2.839c-0.592,0-1.07-1.271-1.07-2.839c0-1.567,0.479-2.839,1.07-2.839
				C356.606,1017.304,357.086,1018.576,357.086,1020.143z"/>
		</g>
	</g>
</g>
<g>
	<text transform="matrix(1 0 0 1 3.6665 17.0987)" fill="#662A10" font-family="'Orbitron-Regular'" font-size="18">Rusty</text>
	<text transform="matrix(1 0 0 1 62.9165 17.0987)" fill="#662A10" font-family="'Orbitron-Black'" font-size="18">shark</text>
</g>
</svg>
